{"accessors" : [{"bufferView" : 0, "byteOffset" : 0, "componentType" : 5123, "count" : 528, "type" : "SCALAR", "max" : [487], "min" : [0]}, {"bufferView" : 1, "byteOffset" : 0, "componentType" : 5126, "count" : 488, "type" : "VEC3", "max" : [374.2211608886719, 2.786010980606079, -218.26296997070312], "min" : [312.05548095703125, 0, -239.8326873779297], "name" : "POSITION"}, {"bufferView" : 1, "byteOffset" : 12, "componentType" : 5126, "count" : 488, "type" : "VEC2", "max" : [43.4547004699707, -9.051899909973145], "min" : [0.5515000224113464, -32.991600036621094], "name" : "TEXCOORD_0"}, {"bufferView" : 0, "byteOffset" : 1056, "componentType" : 5123, "count" : 4506, "type" : "SCALAR", "max" : [4453], "min" : [0]}, {"bufferView" : 2, "byteOffset" : 0, "componentType" : 5126, "count" : 4454, "type" : "VEC3", "max" : [378.991455078125, 36, -212], "min" : [307.008544921875, 2.641669988632202, -248], "name" : "POSITION"}, {"bufferView" : 2, "byteOffset" : 12, "componentType" : 5126, "count" : 4454, "type" : "VEC2", "max" : [44.05690002441406, 0.38429999351501465], "min" : [0.13359999656677246, -41.76570129394531], "name" : "TEXCOORD_0"}], "asset" : {"generator" : "Aspose.3D 21.11", "version" : "2.0"}, "buffers" : [{"uri" : "data:application/octet-stream;base64,", "byteLength" : 110760}], "bufferViews" : [{"buffer" : 0, "byteOffset" : 0, "byteLength" : 10068, "target" : 34963}, {"buffer" : 0, "byteOffset" : 10072, "byteLength" : 10560, "byteStride" : 20, "target" : 34962}, {"buffer" : 0, "byteOffset" : 20636, "byteLength" : 90120, "byteStride" : 20, "target" : 34962}], "materials" : [{"name" : "Cinema_Sof", "pbrMetallicRoughness" : {"baseColorFactor" : [0.34, 0.13, 0.04, 1], "metallicFactor" : 0, "roughnessFactor" : 0.88724}, "emissiveFactor" : [0, 0, 0], "alphaMode" : "OPAQUE", "doubleSided" : false}, {"name" : "Cinema_Sof_1", "pbrMetallicRoughness" : {"baseColorFactor" : [0.1, 0.07, 0.02, 1], "metallicFactor" : 0, "roughnessFactor" : 0.9609}, "emissiveFactor" : [0, 0, 0], "alphaMode" : "OPAQUE", "doubleSided" : false}], "meshes" : [{"primitives" : [{"attributes" : {"POSITION" : 1, "TEXCOORD_0" : 2}, "indices" : 0, "material" : 0, "mode" : 4}, {"attributes" : {"POSITION" : 4, "TEXCOORD_0" : 5}, "indices" : 3, "material" : 1, "mode" : 4}]}], "nodes" : [{"mesh" : 0, "name" : "Node"}], "scene" : 0, "scenes" : [{"nodes" : [0]}]}