{"accessors" : [{"bufferView" : 0, "byteOffset" : 0, "componentType" : 5123, "count" : 444, "type" : "SCALAR", "max" : [438], "min" : [0]}, {"bufferView" : 1, "byteOffset" : 0, "componentType" : 5126, "count" : 439, "type" : "VEC3", "max" : [0.7860041260719299, 0.23242029547691345, 0.3427600860595703], "min" : [-0.7821984887123108, -0.12324679642915726, -0.29289761185646057], "name" : "POSITION"}, {"bufferView" : 0, "byteOffset" : 888, "componentType" : 5123, "count" : 1080, "type" : "SCALAR", "max" : [1079], "min" : [0]}, {"bufferView" : 2, "byteOffset" : 0, "componentType" : 5126, "count" : 1080, "type" : "VEC3", "max" : [0.6261466145515442, 0.33009231090545654, 0.2175966054201126], "min" : [-0.6223409175872803, -0.051314350217580795, -0.3007872998714447], "name" : "POSITION"}, {"bufferView" : 0, "byteOffset" : 3048, "componentType" : 5123, "count" : 264, "type" : "SCALAR", "max" : [247], "min" : [0]}, {"bufferView" : 3, "byteOffset" : 0, "componentType" : 5126, "count" : 248, "type" : "VEC3", "max" : [0.5242217183113098, 0.14108359813690186, -0.02874946966767311], "min" : [-0.5204160213470459, 0.1105199009180069, -0.06501179933547974], "name" : "POSITION"}, {"bufferView" : 0, "byteOffset" : 3576, "componentType" : 5123, "count" : 360, "type" : "SCALAR", "max" : [359], "min" : [0]}, {"bufferView" : 4, "byteOffset" : 0, "componentType" : 5126, "count" : 360, "type" : "VEC3", "max" : [0.7615628838539124, -0.1138990968465805, 0.324636310338974], "min" : [-0.7577574849128723, -0.18277239799499512, -0.28395840525627136], "name" : "POSITION"}], "asset" : {"generator" : "Aspose.3D 21.11", "version" : "2.0"}, "buffers" : [{"uri" : "data:application/octet-stream;base64,", "byteLength" : 30092}], "bufferViews" : [{"buffer" : 0, "byteOffset" : 0, "byteLength" : 4296, "target" : 34963}, {"buffer" : 0, "byteOffset" : 4300, "byteLength" : 5328, "byteStride" : 12, "target" : 34962}, {"buffer" : 0, "byteOffset" : 9632, "byteLength" : 12960, "byteStride" : 12, "target" : 34962}, {"buffer" : 0, "byteOffset" : 22596, "byteLength" : 3168, "byteStride" : 12, "target" : 34962}, {"buffer" : 0, "byteOffset" : 25768, "byteLength" : 4320, "byteStride" : 12, "target" : 34962}], "materials" : [{"name" : "mat23", "pbrMetallicRoughness" : {"baseColorFactor" : [0.01, 0.01, 0.01, 1], "metallicFactor" : 0, "roughnessFactor" : 1}, "emissiveFactor" : [0, 0, 0], "alphaMode" : "OPAQUE", "doubleSided" : false}, {"name" : "mat17", "pbrMetallicRoughness" : {"baseColorFactor" : [0.06, 0.1, 0.13, 1], "metallicFactor" : 0, "roughnessFactor" : 1}, "emissiveFactor" : [0, 0, 0], "alphaMode" : "OPAQUE", "doubleSided" : false}, {"name" : "mat16", "pbrMetallicRoughness" : {"baseColorFactor" : [0.19, 0.28, 0.34, 1], "metallicFactor" : 0, "roughnessFactor" : 1}, "emissiveFactor" : [0, 0, 0], "alphaMode" : "OPAQUE", "doubleSided" : false}, {"name" : "mat20", "pbrMetallicRoughness" : {"baseColorFactor" : [0.19, 0.09, 0.06, 1], "metallicFactor" : 0, "roughnessFactor" : 1}, "emissiveFactor" : [0, 0, 0], "alphaMode" : "OPAQUE", "doubleSided" : false}], "meshes" : [{"primitives" : [{"attributes" : {"POSITION" : 1}, "indices" : 0, "material" : 0, "mode" : 4}, {"attributes" : {"POSITION" : 3}, "indices" : 2, "material" : 1, "mode" : 4}, {"attributes" : {"POSITION" : 5}, "indices" : 4, "material" : 2, "mode" : 4}, {"attributes" : {"POSITION" : 7}, "indices" : 6, "material" : 3, "mode" : 4}]}], "nodes" : [{"mesh" : 0, "name" : "Node"}], "scene" : 0, "scenes" : [{"nodes" : [0]}]}